 <svg  version="1.0" xmlns="http://www.w3.org/2000/svg"  width="300.000000pt" height="171.000000pt" viewBox="0 0 300.000000 171.000000"  preserveAspectRatio="xMidYMid meet">  <g transform="translate(0.000000,171.000000) scale(0.100000,-0.100000)" fill="#ffffff" stroke="none"> <path d="M1380 1090 l0 -90 38 0 c26 0 45 7 57 20 l18 20 22 -20 c14 -13 35 -20 63 -20 l42 0 0 68 c0 60 -3 71 -25 92 l-25 23 2 -74 2 -74 3 63 c3 54 6 62 18 52 10 -9 15 -33 15 -76 l0 -64 -37 0 c-20 0 -45 7 -55 17 -18 16 -18 17 4 40 l23 24 -47 45 c-37 35 -54 44 -82 44 l-36 0 0 -90z m107 38 l43 -42 -37 -38 c-28 -29 -45 -38 -70 -38 l-33 0 0 80 0 80 27 0 c19 0 41 -14 70 -42z"/> <path d="M1420 1092 c0 -58 6 -63 38 -29 l22 23 -30 29 -30 29 0 -52z m48 -6 c-2 -1 -11 -8 -20 -15 -16 -12 -18 -10 -18 19 0 32 0 33 20 15 11 -10 19 -19 18 -19z"/> <path d="M1920 971 c-91 -113 -97 -118 -130 -116 -21 1 -24 1 -8 -2 l27 -4 -67 -84 -67 -84 -3 49 -3 50 -60 0 -59 0 0 -55 0 -55 -40 0 -40 0 0 98 1 97 39 45 40 45 0 -52 0 -53 60 0 60 0 0 54 0 55 43 4 42 4 -47 1 -48 2 0 -55 0 -55 -50 0 -50 0 0 49 c0 35 -4 51 -16 55 -8 3 -107 6 -220 6 l-204 -1 0 -154 0 -154 220 0 220 -1 0 55 0 55 50 0 50 0 0 -53 0 -54 63 -2 64 -2 59 78 c32 43 64 84 71 93 10 12 12 7 13 -32 0 -47 -1 -48 -30 -48 -39 0 -38 -18 3 -58 28 -27 41 -32 80 -32 l47 0 0 70 c0 39 0 72 0 75 0 3 22 39 50 80 50 75 51 75 95 75 25 0 45 -2 45 -5 0 -5 -55 -84 -91 -131 -5 -6 9 -34 34 -70 65 -89 64 -84 10 -84 -48 0 -48 1 -87 60 -21 33 -40 60 -43 60 -5 0 1 -11 55 -92 24 -37 26 -38 84 -38 l59 0 -54 78 -55 78 49 64 c26 36 49 71 49 78 0 8 -17 12 -53 12 l-53 0 -47 -72 -46 -73 -1 133 c0 72 -3 132 -8 132 -4 0 -50 -53 -102 -119z m100 -96 l0 -205 -44 0 c-38 0 -48 5 -70 33 l-26 32 30 3 c30 3 30 4 30 64 0 74 -3 72 -92 -48 l-62 -84 -49 0 c-40 0 -47 3 -38 13 6 8 9 17 6 20 -3 4 -2 5 2 2 8 -6 39 37 35 50 -2 6 0 7 4 3 8 -9 40 32 36 45 -1 5 1 6 5 4 5 -3 58 57 118 133 61 77 111 139 113 139 1 1 2 -91 2 -204z m-783 47 c-35 -36 -37 -42 -37 -102 -1 -59 -4 -68 -35 -105 l-35 -40 0 143 0 142 72 0 72 0 -37 -38z m280 20 c-10 -10 -15 -21 -12 -24 3 -2 -6 -15 -20 -28 -18 -17 -25 -34 -25 -60 0 -21 -3 -65 -6 -99 l-7 -61 -150 0 -150 0 24 26 c13 14 23 29 22 32 -1 4 1 9 4 12 4 3 3 -2 -2 -10 -6 -12 -5 -13 6 -2 8 7 41 12 82 12 l69 0 -49 58 c-81 96 -78 86 -42 126 l31 36 121 0 c116 0 120 -1 104 -18z m-292 -51 c-3 -5 20 -39 50 -75 l56 -66 -60 0 -61 0 0 68 c0 61 4 82 17 82 2 0 2 -4 -2 -9z"/> <path d="M1480 905 c-9 -11 -32 -15 -82 -15 -80 0 -80 -1 -1 -86 54 -57 47 -42 -12 26 l-40 45 62 3 c45 2 65 8 78 22 10 11 16 20 13 20 -3 0 -11 -7 -18 -15z"/> <path d="M772 957 c4 -16 331 -427 336 -422 2 2 -71 96 -162 210 -91 113 -166 208 -166 211 0 2 20 4 45 4 l44 0 76 -100 c42 -55 78 -100 80 -100 3 0 5 29 5 65 l0 65 -31 0 -31 0 27 33 c22 25 38 33 74 38 l46 6 -47 1 c-43 2 -49 -1 -82 -40 l-35 -43 34 -3 35 -3 -1 -52 c0 -51 0 -52 -17 -28 -9 13 -42 57 -74 97 l-58 74 -51 0 c-37 0 -50 -4 -47 -13z"/> </g> </svg> 